# xmcd
#
# Track frame offsets:
#	150
#	24075
#	41325
#	57375
#	73500
#	91275
#	106650
#	124125
#	141450
#	157575
#	177450
#	193800
#	206250
#	217050
#	234750
#	251775
#	272925
#	290925
#
# Disc length: 4061 seconds
#
# Revision: 1
# Processed by: cddbd v1.5.2PL0 Copyright (c) Steve Scherf et al.
# Submitted via: audiograbber 1.83.01
#
DISCID=090fdb12
DTITLE=Various Artist - CSZ206
DYEAR=1900
DGENRE=Karaoke 
TTITLE0=Dixie Chicks - Cold Day In July
TTITLE1=Leann Rimes - I Need You
TTITLE2=Alabama - We Made Live
TTITLE3=Lonestar - What About Now
TTITLE4=Tim McGraw - Some Things Never Change
TTITLE5=Chad Brock - Yes!
TTITLE6=Clay Walker  - Chain Of Love 
TTITLE7=SheDaisy - I Will . . . But
TTITLE8=Collin Raye  - Couldn't Last A Moment
TTITLE9=Reba McEntire - I'll Be
TTITLE10=The Judds  - Stuck In Love
TTITLE11=Trace Adkins - More
TTITLE12=Brad Paisley - Me Neither
TTITLE13=Lee Ann Womack - I Hope You Dance
TTITLE14=Rascal Flatts - Prayin' For Daylight
TTITLE15=Ty Herndon - No Mercy
TTITLE16=Keith Urban - Your Everything
TTITLE17=Joe Diffie - It's Always Somethin'
EXTD=
EXTT0=
EXTT1=
EXTT2=
EXTT3=
EXTT4=
EXTT5=
EXTT6=
EXTT7=
EXTT8=
EXTT9=
EXTT10=
EXTT11=
EXTT12=
EXTT13=
EXTT14=
EXTT15=
EXTT16=
EXTT17=
PLAYORDER=
